<?xml version="1.0" standalone="no"?>
<!DOCTYPE svg PUBLIC "-//W3C//DTD SVG 20010904//EN"
 "http://www.w3.org/TR/2001/REC-SVG-20010904/DTD/svg10.dtd">
<svg version="1.0" xmlns="http://www.w3.org/2000/svg"
 width="920.000000pt" height="844.000000pt" viewBox="0 0 920.000000 844.000000"
 preserveAspectRatio="xMidYMid meet">

<g transform="translate(0.000000,844.000000) scale(0.100000,-0.100000)"
fill="#000000" stroke="none">
<path d="M4137 7686 c-150 -62 -232 -155 -272 -310 -43 -165 -17 -297 97 -486
109 -183 187 -261 485 -482 192 -143 228 -164 268 -154 35 9 414 388 487 486
201 274 251 451 185 660 -58 186 -181 290 -361 307 -104 9 -249 -45 -353 -130
-59 -50 -60 -50 -137 13 -39 32 -97 72 -128 89 -50 27 -66 31 -135 31 -59 0
-92 -6 -136 -24z m188 -165 c50 -24 94 -57 165 -125 105 -101 119 -103 198
-33 158 140 261 184 373 157 112 -27 174 -136 172 -299 -1 -78 -4 -93 -36
-156 -19 -39 -46 -86 -59 -105 -13 -19 -44 -64 -68 -100 -47 -69 -365 -400
-385 -400 -32 0 -370 264 -451 352 -128 141 -215 319 -214 441 1 57 30 140 64
183 46 57 121 99 186 103 8 0 33 -8 55 -18z"/>
<path d="M5175 6234 c-102 -26 -232 -111 -284 -188 -71 -103 -178 -360 -206
-493 -3 -17 -12 -33 -18 -36 -7 -2 -88 83 -182 190 -199 228 -250 277 -371
358 -150 101 -251 124 -377 85 -107 -33 -246 -156 -272 -240 -4 -14 -11 -29
-15 -35 -5 -5 -14 -38 -21 -72 -10 -50 -11 -77 -1 -136 14 -79 69 -237 103
-296 100 -167 412 -587 720 -968 28 -35 48 -67 45 -71 -3 -5 -36 -12 -73 -14
-109 -9 -177 -40 -253 -117 -109 -110 -148 -224 -135 -386 3 -44 9 -90 12
-102 l5 -23 -103 6 c-145 9 -235 -16 -336 -92 -40 -30 -108 -143 -123 -204 -6
-25 -16 -55 -22 -66 -13 -27 -5 -142 15 -239 8 -38 12 -73 8 -77 -3 -4 -29 -1
-56 7 -55 17 -134 21 -185 10 -58 -13 -148 -63 -192 -108 -90 -92 -119 -169
-119 -307 1 -203 99 -417 300 -654 90 -106 141 -158 242 -246 41 -36 76 -67
79 -71 11 -11 157 -128 249 -197 112 -85 283 -172 396 -202 114 -30 329 -38
452 -16 189 33 475 144 621 241 30 19 56 35 58 35 9 0 115 78 229 169 193 154
375 347 510 542 22 31 75 105 118 164 140 193 206 320 261 504 30 100 14 365
-27 471 -20 50 -37 104 -37 119 0 38 -155 346 -229 456 -80 117 -160 228 -214
295 -122 151 -191 235 -197 240 -3 3 -41 48 -85 100 -44 52 -82 97 -85 100
-24 22 -70 91 -70 104 0 14 80 246 186 536 84 231 132 385 138 445 27 265
-127 465 -368 480 -39 2 -80 2 -91 -1z m162 -189 c100 -50 144 -165 117 -304
-7 -36 -27 -106 -43 -155 -33 -96 -147 -408 -162 -441 -5 -11 -18 -49 -29 -85
-44 -133 -48 -138 -80 -97 -11 13 -89 104 -174 202 -86 98 -156 186 -156 195
0 32 130 413 166 486 38 78 114 163 174 195 44 23 145 25 187 4z m-1437 -62
c74 -27 180 -102 265 -188 90 -89 130 -135 397 -445 102 -118 251 -291 332
-385 676 -778 820 -958 971 -1210 121 -202 163 -309 206 -520 28 -143 28 -249
-1 -335 -67 -200 -367 -651 -581 -875 -226 -236 -557 -462 -794 -543 -268 -91
-409 -109 -585 -74 -190 38 -313 108 -570 322 -411 343 -607 616 -627 870 -6
86 2 121 44 178 32 43 118 92 164 92 68 0 183 -53 254 -117 11 -10 65 -54 120
-98 154 -123 266 -219 310 -265 71 -74 115 -86 172 -47 27 18 33 28 33 60 0
21 -6 45 -12 53 -7 8 -95 98 -196 200 -250 253 -316 344 -347 476 -20 86 -19
154 5 223 27 77 63 123 118 147 39 17 61 20 146 16 152 -7 202 -41 386 -257
54 -64 151 -169 217 -233 147 -145 185 -163 237 -112 19 20 26 37 26 66 0 37
-8 48 -138 181 -197 203 -355 406 -409 523 -38 85 -45 228 -14 301 27 61 91
124 149 147 76 29 205 14 282 -33 55 -33 133 -113 277 -284 369 -438 356 -426
408 -413 39 10 75 50 75 84 0 26 -32 85 -63 117 -14 14 -16 16 -392 465 -164
195 -323 384 -354 420 -101 116 -346 426 -401 506 -8 12 -44 59 -78 104 -83
106 -243 344 -265 395 -10 22 -22 49 -27 60 -21 47 -40 132 -40 180 0 98 85
214 183 248 57 20 64 20 117 0z"/>
</g>
</svg>
